<svg width="21" height="21" viewBox="0 0 21 21" fill="none" xmlns="http://www.w3.org/2000/svg">
<path d="M11.2037 5.75073C11.2037 5.55163 11.1403 5.36067 11.0274 5.21988C10.9146 5.07909 10.7615 5 10.6019 5C10.4422 5 10.2891 5.07909 10.1763 5.21988C10.0634 5.36067 10 5.55163 10 5.75073V11.2561C10 11.5264 10.1156 11.7746 10.3033 11.9078L13.112 13.9097C13.2502 14.0029 13.4122 14.025 13.5634 13.9712C13.7145 13.9173 13.8427 13.7919 13.9207 13.6217C13.9987 13.4515 14.0202 13.25 13.9806 13.0603C13.9411 12.8706 13.8436 12.7077 13.709 12.6064L11.2037 10.8207V5.75073Z" fill="#252525"/>
<path d="M10.5 0C16.2989 0 21 4.70114 21 10.5C21 16.2989 16.2989 21 10.5 21C4.70114 21 0 16.2989 0 10.5C0 4.70114 4.70114 0 10.5 0ZM1.43182 10.5C1.43182 12.905 2.38721 15.2116 4.08783 16.9122C5.78844 18.6128 8.09497 19.5682 10.5 19.5682C12.905 19.5682 15.2116 18.6128 16.9122 16.9122C18.6128 15.2116 19.5682 12.905 19.5682 10.5C19.5682 8.09497 18.6128 5.78844 16.9122 4.08783C15.2116 2.38721 12.905 1.43182 10.5 1.43182C8.09497 1.43182 5.78844 2.38721 4.08783 4.08783C2.38721 5.78844 1.43182 8.09497 1.43182 10.5Z" fill="#252525"/>
</svg>
