<svg width="42" height="61" viewBox="0 0 42 61" fill="none" xmlns="http://www.w3.org/2000/svg">
<path d="M2.71834 37.2047C6.94325 29.5857 6.92422 34.2802 10.0606 22.7802C11.8071 10.4955 18.0197 10.5991 21.6755 10.66L21.6841 10.6602C21.7544 8.23595 22.4218 1.15302 24.4191 1.01449C26.4163 0.875962 28.708 1.76485 29.6042 2.2266L24.4191 10.6602C26.8581 10.494 32.0051 12.0663 33.0805 19.6853C34.4248 29.2091 31.1211 22.3131 40.3586 40.6679C41.8949 47.4211 39.1134 57.4074 22.6907 59.0228C2.71834 60.9874 -2.07465 45.8482 2.71834 37.2047Z" fill="#A8D491"/>
<path d="M21.6841 10.6602C18.0294 10.5993 11.8085 10.4859 10.0606 22.7802C6.92422 34.2802 6.94325 29.5857 2.71834 37.2047C-2.07465 45.8482 2.71834 60.9874 22.6907 59.0228C39.1134 57.4074 41.8949 47.4211 40.3586 40.6679C31.1211 22.3131 34.4248 29.2091 33.0805 19.6853C32.0051 12.0663 26.8581 10.494 24.4191 10.6602M21.6841 10.6602C21.7544 8.23595 22.4218 1.15302 24.4191 1.01449C26.4163 0.875962 28.708 1.76485 29.6042 2.2266L24.4191 10.6602M21.6841 10.6602H24.4191" stroke="#5A714D" stroke-width="2"/>
<circle cx="15.2881" cy="41.4241" r="1.74242" fill="#5A714D"/>
<circle cx="25.3938" cy="41.4241" r="1.74242" fill="#5A714D"/>
<path d="M17.3784 47.4098C19.0047 46.132 21.2117 45.3189 23.6511 47.4098" stroke="#5A714D"/>
</svg>
