<svg width="205" height="75" viewBox="0 0 205 75" fill="none" xmlns="http://www.w3.org/2000/svg">
<path d="M116.997 45.821C121.906 36.9675 121.884 42.4226 125.529 29.0593C127.558 14.7841 134.777 14.9044 139.026 14.9752L139.035 14.9754C139.117 12.1584 139.893 3.92781 142.214 3.76684C144.535 3.60586 147.198 4.63877 148.239 5.17535L142.214 14.9754C145.048 14.7823 151.029 16.6094 152.279 25.4629C153.841 36.5298 150.002 28.5164 160.736 49.8453C162.521 57.6927 159.289 69.2971 140.205 71.1742C116.997 73.4571 111.427 55.865 116.997 45.821Z" fill="#9ECE86"/>
<path d="M139.035 14.9754C134.789 14.9046 127.56 14.7729 125.529 29.0593C121.884 42.4226 121.906 36.9675 116.997 45.821C111.427 55.865 116.997 73.4571 140.205 71.1742C159.289 69.2971 162.521 57.6927 160.736 49.8453C150.002 28.5164 153.841 36.5298 152.279 25.4629C151.029 16.6094 145.048 14.7823 142.214 14.9754M139.035 14.9754C139.117 12.1584 139.893 3.92781 142.214 3.76684C144.535 3.60586 147.198 4.63877 148.239 5.17535L142.214 14.9754M139.035 14.9754H142.214" stroke="#9ECE86" stroke-width="1.25"/>
<circle cx="131.603" cy="50.724" r="2.02474" fill="#5A714D"/>
<circle cx="143.346" cy="50.724" r="2.02474" fill="#5A714D"/>
<path d="M134.033 56.1908C135.922 57.6756 138.487 58.6205 141.322 56.1908" stroke="#5A714D" stroke-width="1.25"/>
<path d="M175.18 28.0815C170.482 24.518 166.743 25.5169 165.461 26.4618C162.221 23.4246 165.461 18.1603 163.639 18.1603C161.816 18.1603 162.872 17.6269 160.399 18.1603C157.926 18.6938 161.454 25.5844 162.995 28.0815C160.83 29.8697 158.889 32.6386 160.399 35.7756C162.505 40.149 162.626 45.0219 162.424 46.9116C162.1 60.3559 165.549 64.8264 167.486 66.7541C175.18 74.4135 193.988 72.5913 198.667 59.87C205.146 42.2547 190.365 38.0253 186.316 35.7756C181.456 33.0759 181.051 32.536 175.18 28.0815Z" fill="#9ECE86" stroke="#9ECE86" stroke-width="1.25"/>
<path d="M182.627 59.4305C184.55 60.0668 187.688 58.0132 187.688 55.7859" stroke="#5A714D" stroke-width="1.25"/>
<path d="M188.701 50.724C188.701 51.8423 187.794 52.7488 186.676 52.7488C185.558 52.7488 184.651 51.8423 184.651 50.724C184.651 49.6058 185.558 48.6993 186.676 48.6993C187.794 48.6993 188.701 49.6058 188.701 50.724Z" fill="#5A714D"/>
<circle cx="177.767" cy="56.7982" r="2.02474" fill="#5A714D"/>
<path d="M14.3821 35.9318H18.9418V51.1449C18.9418 52.5511 18.6257 53.7727 17.9936 54.8097C17.3686 55.8466 16.4986 56.6456 15.3835 57.2067C14.2685 57.7678 12.9723 58.0483 11.495 58.0483C10.1811 58.0483 8.98793 57.8175 7.91548 57.3558C6.85014 56.8871 6.00497 56.1768 5.37997 55.2251C4.75497 54.2663 4.44602 53.0625 4.45312 51.6136H9.04474C9.05895 52.1889 9.17614 52.6825 9.39631 53.0945C9.62358 53.4993 9.93253 53.8118 10.3232 54.032C10.7209 54.245 11.1896 54.3516 11.7294 54.3516C12.2976 54.3516 12.777 54.2308 13.1676 53.9893C13.5653 53.7408 13.8672 53.3786 14.0732 52.9027C14.2791 52.4268 14.3821 51.8409 14.3821 51.1449V35.9318ZM30.0639 58.0696C28.4091 58.0696 26.978 57.718 25.7706 57.0149C24.5703 56.3047 23.6435 55.3175 22.9901 54.0533C22.3366 52.782 22.0099 51.3082 22.0099 49.6321C22.0099 47.9418 22.3366 46.4645 22.9901 45.2003C23.6435 43.929 24.5703 42.9418 25.7706 42.2386C26.978 41.5284 28.4091 41.1733 30.0639 41.1733C31.7188 41.1733 33.1463 41.5284 34.3466 42.2386C35.554 42.9418 36.4844 43.929 37.1378 45.2003C37.7912 46.4645 38.1179 47.9418 38.1179 49.6321C38.1179 51.3082 37.7912 52.782 37.1378 54.0533C36.4844 55.3175 35.554 56.3047 34.3466 57.0149C33.1463 57.718 31.7188 58.0696 30.0639 58.0696ZM30.0852 54.554C30.8381 54.554 31.4666 54.3409 31.9709 53.9148C32.4751 53.4815 32.8551 52.892 33.1108 52.1463C33.3736 51.4006 33.505 50.5518 33.505 49.6001C33.505 48.6484 33.3736 47.7997 33.1108 47.054C32.8551 46.3082 32.4751 45.7187 31.9709 45.2855C31.4666 44.8523 30.8381 44.6357 30.0852 44.6357C29.3253 44.6357 28.6861 44.8523 28.1676 45.2855C27.6563 45.7187 27.2692 46.3082 27.0064 47.054C26.7507 47.7997 26.6229 48.6484 26.6229 49.6001C26.6229 50.5518 26.7507 51.4006 27.0064 52.1463C27.2692 52.892 27.6563 53.4815 28.1676 53.9148C28.6861 54.3409 29.3253 54.554 30.0852 54.554ZM41.1541 57.75V35.9318H45.6925V44.1349H45.831C46.0298 43.6946 46.3175 43.2472 46.6939 42.7926C47.0774 42.331 47.5746 41.9474 48.1854 41.642C48.8033 41.3295 49.5703 41.1733 50.4865 41.1733C51.6797 41.1733 52.7805 41.4858 53.7891 42.1108C54.7976 42.7287 55.6037 43.6626 56.2074 44.9126C56.8111 46.1555 57.1129 47.7145 57.1129 49.5895C57.1129 51.4148 56.8182 52.956 56.2287 54.2131C55.6463 55.4631 54.8509 56.4112 53.8423 57.0575C52.8409 57.6967 51.7188 58.0163 50.4759 58.0163C49.5952 58.0163 48.8459 57.8707 48.228 57.5795C47.6172 57.2884 47.1165 56.9226 46.7259 56.4822C46.3352 56.0348 46.0369 55.5838 45.831 55.1293H45.6286V57.75H41.1541ZM45.5966 49.5682C45.5966 50.5412 45.7315 51.3899 46.0014 52.1143C46.2713 52.8388 46.6619 53.4034 47.1733 53.8082C47.6847 54.206 48.3061 54.4048 49.0376 54.4048C49.7763 54.4048 50.4013 54.2024 50.9126 53.7976C51.424 53.3857 51.8111 52.8175 52.0739 52.093C52.3438 51.3615 52.4787 50.5199 52.4787 49.5682C52.4787 48.6236 52.3473 47.7926 52.0845 47.0753C51.8217 46.358 51.4347 45.7969 50.9233 45.392C50.4119 44.9872 49.7834 44.7848 49.0376 44.7848C48.299 44.7848 47.674 44.9801 47.1626 45.3707C46.6584 45.7614 46.2713 46.3153 46.0014 47.0327C45.7315 47.75 45.5966 48.5952 45.5966 49.5682ZM60.2264 57.75V35.9318H64.7647V44.1349H64.9032C65.1021 43.6946 65.3897 43.2472 65.7662 42.7926C66.1497 42.331 66.6468 41.9474 67.2576 41.642C67.8755 41.3295 68.6426 41.1733 69.5588 41.1733C70.752 41.1733 71.8528 41.4858 72.8613 42.1108C73.8699 42.7287 74.676 43.6626 75.2797 44.9126C75.8833 46.1555 76.1852 47.7145 76.1852 49.5895C76.1852 51.4148 75.8904 52.956 75.301 54.2131C74.7186 55.4631 73.9231 56.4112 72.9146 57.0575C71.9132 57.6967 70.791 58.0163 69.5481 58.0163C68.6674 58.0163 67.9181 57.8707 67.3002 57.5795C66.6895 57.2884 66.1887 56.9226 65.7981 56.4822C65.4075 56.0348 65.1092 55.5838 64.9032 55.1293H64.7008V57.75H60.2264ZM64.6689 49.5682C64.6689 50.5412 64.8038 51.3899 65.0737 52.1143C65.3436 52.8388 65.7342 53.4034 66.2456 53.8082C66.7569 54.206 67.3784 54.4048 68.1099 54.4048C68.8485 54.4048 69.4735 54.2024 69.9849 53.7976C70.4963 53.3857 70.8833 52.8175 71.1461 52.093C71.416 51.3615 71.551 50.5199 71.551 49.5682C71.551 48.6236 71.4196 47.7926 71.1568 47.0753C70.894 46.358 70.5069 45.7969 69.9956 45.392C69.4842 44.9872 68.8556 44.7848 68.1099 44.7848C67.3713 44.7848 66.7463 44.9801 66.2349 45.3707C65.7306 45.7614 65.3436 46.3153 65.0737 47.0327C64.8038 47.75 64.6689 48.5952 64.6689 49.5682ZM79.2134 57.75V41.3864H83.7518V57.75H79.2134ZM81.4933 39.277C80.8185 39.277 80.2397 39.0533 79.7567 38.6058C79.2809 38.1513 79.043 37.608 79.043 36.9759C79.043 36.3509 79.2809 35.8146 79.7567 35.3672C80.2397 34.9126 80.8185 34.6854 81.4933 34.6854C82.168 34.6854 82.7433 34.9126 83.2191 35.3672C83.7021 35.8146 83.9435 36.3509 83.9435 36.9759C83.9435 37.608 83.7021 38.1513 83.2191 38.6058C82.7433 39.0533 82.168 39.277 81.4933 39.277ZM94.8446 58.0696C93.1614 58.0696 91.7125 57.7287 90.498 57.0469C89.2907 56.358 88.3603 55.3849 87.7069 54.1278C87.0534 52.8636 86.7267 51.3686 86.7267 49.6428C86.7267 47.9595 87.0534 46.4822 87.7069 45.2109C88.3603 43.9396 89.28 42.9489 90.4661 42.2386C91.6593 41.5284 93.0584 41.1733 94.6635 41.1733C95.7431 41.1733 96.748 41.3473 97.6784 41.6953C98.6159 42.0362 99.4327 42.5511 100.129 43.2401C100.832 43.929 101.379 44.7955 101.769 45.8395C102.16 46.8764 102.355 48.0909 102.355 49.483V50.7294H88.5378V47.9169H98.0833C98.0833 47.2635 97.9412 46.6847 97.6571 46.1804C97.373 45.6761 96.9789 45.282 96.4746 44.9979C95.9775 44.7067 95.3986 44.5611 94.7381 44.5611C94.0492 44.5611 93.4384 44.7209 92.9057 45.0405C92.3801 45.353 91.9682 45.7756 91.6699 46.3082C91.3716 46.8338 91.2189 47.4197 91.2118 48.0661V50.7401C91.2118 51.5497 91.361 52.2493 91.6593 52.8388C91.9647 53.4283 92.3944 53.8828 92.9483 54.2024C93.5023 54.522 94.1593 54.6818 94.9192 54.6818C95.4235 54.6818 95.8851 54.6108 96.3042 54.4688C96.7232 54.3267 97.0819 54.1136 97.3801 53.8295C97.6784 53.5455 97.9057 53.1974 98.062 52.7855L102.259 53.0625C102.046 54.071 101.61 54.9517 100.949 55.7045C100.296 56.4503 99.4505 57.0327 98.4135 57.4517C97.3837 57.8636 96.1941 58.0696 94.8446 58.0696Z" fill="#314D20"/>
</svg>
