<svg width="215" height="171" viewBox="0 0 215 171" fill="none" xmlns="http://www.w3.org/2000/svg">
<path d="M6.93091 105.892C19.0546 84.0289 19 97.5 28 64.5C33.0119 29.2481 50.8392 29.5453 61.3298 29.7202L61.3544 29.7206C61.5563 22.7641 63.4716 2.43909 69.2028 2.04158C74.934 1.64406 81.5102 4.19478 84.0819 5.51983L69.2028 29.7206C76.2018 29.2437 90.9714 33.7556 94.0574 55.6189C97.915 82.948 88.4346 63.1594 114.942 115.83C119.351 135.209 111.369 163.865 64.2431 168.501C6.93091 174.138 -6.82294 130.695 6.93091 105.892Z" fill="#D8F4C9"/>
<path d="M61.3544 29.7206C50.8671 29.5458 33.0158 29.2206 28 64.5C19 97.5 19.0546 84.0289 6.93091 105.892C-6.82294 130.695 6.93091 174.138 64.2431 168.501C111.369 163.865 119.351 135.209 114.942 115.83C88.4346 63.1594 97.915 82.948 94.0574 55.6189C90.9714 33.7556 76.2018 29.2437 69.2028 29.7206M61.3544 29.7206C61.5563 22.7641 63.4716 2.43909 69.2028 2.04158C74.934 1.64406 81.5102 4.19478 84.0819 5.51983L69.2028 29.7206M61.3544 29.7206H69.2028" stroke="#D8F4C9" stroke-width="4"/>
<circle cx="43" cy="118" r="5" fill="#5A714D"/>
<circle cx="72" cy="118" r="5" fill="#5A714D"/>
<path d="M49 131.5C53.6667 135.167 60 137.5 67 131.5" stroke="#5A714D" stroke-width="4"/>
<path d="M150.61 62.0855C139.01 53.2855 129.777 55.7521 126.61 58.0855C118.61 50.5855 126.61 37.5855 122.11 37.5855C117.61 37.5855 120.218 36.2681 114.11 37.5855C108.003 38.9028 116.717 55.9188 120.52 62.0855C115.174 66.5012 110.381 73.3389 114.11 81.0855C119.31 91.8855 119.61 103.919 119.11 108.585C118.31 141.785 126.829 152.825 131.61 157.585C150.61 176.5 197.056 172 208.61 140.585C224.61 97.0855 188.11 86.641 178.11 81.0855C166.11 74.4188 165.11 73.0855 150.61 62.0855Z" fill="#D8F4C9" stroke="#D8F4C9" stroke-width="4"/>
<path d="M169 139.5C173.75 141.071 181.5 136 181.5 130.5" stroke="#5A714D" stroke-width="4"/>
<path d="M184 118C184 120.761 181.761 123 179 123C176.239 123 174 120.761 174 118C174 115.239 176.239 113 179 113C181.761 113 184 115.239 184 118Z" fill="#5A714D"/>
<circle cx="157" cy="133" r="5" fill="#5A714D"/>
</svg>
